# xmcd
#
# Track frame offsets: 
#        150
#        17328
#        27821
#        43857
#        57627
#        73536
#        85595
#        103894
#        118520
#        133521
#        151194
#        166003
#        181063
#        198370
#        217118
#
# Disc length: 3081 seconds
#
# Revision: 0
# Processed by: cddbd v1.5.2PL0 Copyright (c) Steve Scherf et al.
# Submitted via: ExactAudioCopy v1.0b1
#
DISCID=c10c070f
DTITLE=PK and Dansefolket - I Kjempeslag
DYEAR=2004
DGENRE=Country
TTITLE0=Takk Gud For At Dere Finns
TTITLE1=Besten
TTITLE2=Når Barna Spør
TTITLE3=I Kjærlighet Te' Deg
TTITLE4=I Kjempeslag
TTITLE5=Sei Det Igjen
TTITLE6=Vår Lille Venn
TTITLE7=Aksjer Og Børs
TTITLE8=Er Det Oss To Eller Fleir
TTITLE9=Ho Har Grunna Te' Ikkje Å Bli
TTITLE10=Du Gamle Mann
TTITLE11=I Berre Messingen
TTITLE12=Våre Siste År
TTITLE13=Denne Tid Slutta Aldri For Henne
TTITLE14=Havlandet
EXTD=
EXTT0=
EXTT1=
EXTT2=
EXTT3=
EXTT4=
EXTT5=
EXTT6=
EXTT7=
EXTT8=
EXTT9=
EXTT10=
EXTT11=
EXTT12=
EXTT13=
EXTT14=
PLAYORDER=
